<svg width="128" height="128" viewBox="0 0 128 128" fill="none" xmlns="http://www.w3.org/2000/svg">
<path fill-rule="evenodd" clip-rule="evenodd" d="M55.3205 7.37727C55.3205 10.347 52.913 12.7545 49.9432 12.7545C46.9735 12.7545 44.566 10.347 44.566 7.37727C44.566 4.40748 46.9735 2 49.9432 2C52.913 2 55.3205 4.40748 55.3205 7.37727ZM51.7357 25.899C49.0959 25.899 46.9559 28.0389 46.9559 30.6787C46.9559 33.3186 49.0959 35.4585 51.7357 35.4585L51.7357 71.307L26.5977 105.317C20.1846 113.994 26.3788 126.275 37.1681 126.275H89.8321C100.579 126.275 106.784 114.079 100.457 105.392L75.6346 71.307V35.4585C78.2744 35.4585 80.4144 33.3186 80.4144 30.6787C80.4144 28.0389 78.2744 25.899 75.6346 25.899H51.7357ZM55.918 23.5091C57.5679 23.5091 58.9054 22.1716 58.9054 20.5217C58.9054 18.8718 57.5679 17.5343 55.918 17.5343C54.2681 17.5343 52.9306 18.8718 52.9306 20.5217C52.9306 22.1716 54.2681 23.5091 55.918 23.5091Z" fill="#E8E8E8"/>
<path d="M98.3386 113.13C98.3386 117.75 94.5937 121.495 89.974 121.495C85.3543 121.495 81.6094 117.75 81.6094 113.13C81.6094 108.51 85.3543 104.766 89.974 104.766C94.5937 104.766 98.3386 108.51 98.3386 113.13ZM84.9826 113.13C84.9826 115.887 87.2173 118.122 89.974 118.122C92.7307 118.122 94.9654 115.887 94.9654 113.13C94.9654 110.373 92.7307 108.139 89.974 108.139C87.2173 108.139 84.9826 110.373 84.9826 113.13Z" fill="#303030"/>
</svg>
